<svg width="68" height="69" viewBox="0 0 68 69" fill="none" xmlns="http://www.w3.org/2000/svg">
<path d="M34 5C49.9818 5 63 18.0611 63 34.25C63 50.4389 49.9818 63.5 34 63.5C18.0182 63.5 5 50.4389 5 34.25C5 18.0611 18.0182 5 34 5Z" stroke="url(#paint0_linear_40_52)" stroke-width="10"/>
<path d="M41.3764 48.0253C40.9918 50.4787 37.9632 51.4292 36.2457 49.6355L27.7457 40.7581L18.2739 32.102C16.5297 30.508 17.2274 27.6168 19.5066 26.9937L30.9742 23.8585L42.1769 19.8792C44.4035 19.0882 46.628 21.0623 46.1073 23.3672L43.2799 35.8831L41.3764 48.0253Z" fill="url(#paint1_linear_40_52)"/>
<defs>
<linearGradient id="paint0_linear_40_52" x1="34" y1="0" x2="34" y2="68.5" gradientUnits="userSpaceOnUse">
<stop stop-color="#2A6EDB"/>
<stop offset="1" stop-color="#7AAFCF"/>
</linearGradient>
<linearGradient id="paint1_linear_40_52" x1="49.7513" y1="28.5864" x2="18.2485" y2="38.4134" gradientUnits="userSpaceOnUse">
<stop stop-color="#2A6EDB"/>
<stop offset="1" stop-color="#7AAFCF"/>
</linearGradient>
</defs>
</svg>
