<svg width="68" height="69" viewBox="0 0 68 69" fill="none" xmlns="http://www.w3.org/2000/svg">
<path d="M34 5C49.9818 5 63 18.0611 63 34.25C63 50.4389 49.9818 63.5 34 63.5C18.0182 63.5 5 50.4389 5 34.25C5 18.0611 18.0182 5 34 5Z" stroke="url(#paint0_linear_40_52)" stroke-width="10"/>
<path d="M49.6161 30.7508C51.9372 31.8207 51.9429 35.1175 49.6254 36.1954L42.0669 39.7111C41.4762 39.9858 40.991 40.4454 40.6846 41.0204L36.671 48.5522C35.5441 50.6669 32.515 50.6721 31.3808 48.5613L27.3413 41.0433C27.0329 40.4694 26.5461 40.0115 25.9545 39.7388L18.3839 36.2491C16.0628 35.1792 16.0571 31.8824 18.3746 30.8045L25.933 27.2888C26.5238 27.0141 27.009 26.5545 27.3154 25.9795L31.329 18.4477C32.4559 16.333 35.485 16.3278 36.6192 18.4386L40.6587 25.9566C40.9671 26.5305 41.4539 26.9884 42.0455 27.2611L49.6161 30.7508Z" fill="url(#paint1_linear_40_52)"/>
<defs>
<linearGradient id="paint0_linear_40_52" x1="34" y1="0" x2="34" y2="68.5" gradientUnits="userSpaceOnUse">
<stop stop-color="#2A6EDB"/>
<stop offset="1" stop-color="#7AAFCF"/>
</linearGradient>
<linearGradient id="paint1_linear_40_52" x1="34" y1="17" x2="34" y2="50" gradientUnits="userSpaceOnUse">
<stop stop-color="#2A6EDB"/>
<stop offset="1" stop-color="#7AAFCF"/>
</linearGradient>
</defs>
</svg>
