<svg width="68" height="69" viewBox="0 0 68 69" fill="none" xmlns="http://www.w3.org/2000/svg">
<path d="M34 5C49.9818 5 63 18.0611 63 34.25C63 50.4389 49.9818 63.5 34 63.5C18.0182 63.5 5 50.4389 5 34.25C5 18.0611 18.0182 5 34 5Z" stroke="url(#paint0_linear_40_52)" stroke-width="10"/>
<path d="M31.4704 15.9679C32.6496 14.1182 35.3504 14.1182 36.5296 15.9679L40.4681 22.1455C40.8462 22.7387 41.4208 23.1801 42.0914 23.3926L49.0842 25.6086C51.0273 26.2243 51.8038 28.557 50.6174 30.2145L45.9979 36.6687C45.6181 37.1993 45.4217 37.8392 45.4384 38.4915L45.6411 46.4152C45.6957 48.55 43.5656 50.0567 41.5709 49.2941L35.0712 46.8095C34.3814 46.5458 33.6186 46.5458 32.9288 46.8095L26.4291 49.2941C24.4344 50.0567 22.3043 48.55 22.3589 46.4152L22.5616 38.4915C22.5783 37.8392 22.3819 37.1993 22.0021 36.6687L17.3826 30.2145C16.1962 28.5569 16.9727 26.2243 18.9158 25.6086L25.9086 23.3926C26.5792 23.1801 27.1538 22.7387 27.5319 22.1455L31.4704 15.9679Z" fill="url(#paint1_linear_40_52)"/>
<defs>
<linearGradient id="paint0_linear_40_52" x1="34" y1="0" x2="34" y2="68.5" gradientUnits="userSpaceOnUse">
<stop stop-color="#2A6EDB"/>
<stop offset="1" stop-color="#7AAFCF"/>
</linearGradient>
<linearGradient id="paint1_linear_40_52" x1="34" y1="12" x2="34" y2="55" gradientUnits="userSpaceOnUse">
<stop stop-color="#2A6EDB"/>
<stop offset="1" stop-color="#7AAFCF"/>
</linearGradient>
</defs>
</svg>
