<svg width="68" height="69" viewBox="0 0 68 69" fill="none" xmlns="http://www.w3.org/2000/svg">
<path d="M34 5C49.9818 5 63 18.0611 63 34.25C63 50.4389 49.9818 63.5 34 63.5C18.0182 63.5 5 50.4389 5 34.25C5 18.0611 18.0182 5 34 5Z" stroke="url(#paint0_linear_40_52)" stroke-width="10"/>
<path d="M40.3323 17.4747C42.3336 16.3366 44.818 17.7837 44.8154 20.086L44.8094 25.2133C44.8082 26.2424 45.3346 27.2003 46.204 27.7511L50.46 30.4471C52.2985 31.6118 52.324 34.285 50.5081 35.4846L45.6081 38.7214C44.8273 39.2372 44.332 40.0877 44.2685 41.0212L43.8704 46.8803C43.7228 49.0516 41.3849 50.3483 39.4649 49.3236L35.0201 46.9517C34.1121 46.4672 33.0192 46.4819 32.1246 46.9906L27.6676 49.5253C25.6664 50.6634 23.1819 49.2163 23.1846 46.914L23.1905 41.7867C23.1917 40.7576 22.6653 39.7997 21.7959 39.249L17.54 36.5529C15.7015 35.3883 15.6759 32.715 17.4918 31.5154L22.3919 28.2786C23.1726 27.7628 23.668 26.9124 23.7314 25.9788L24.1296 20.1197C24.2771 17.9484 26.6151 16.6518 28.5351 17.6764L32.9799 20.0483C33.8878 20.5328 34.9807 20.5181 35.8753 20.0094L40.3323 17.4747Z" fill="url(#paint1_linear_40_52)"/>
<defs>
<linearGradient id="paint0_linear_40_52" x1="34" y1="0" x2="34" y2="68.5" gradientUnits="userSpaceOnUse">
<stop stop-color="#2A6EDB"/>
<stop offset="1" stop-color="#7AAFCF"/>
</linearGradient>
<linearGradient id="paint1_linear_40_52" x1="44.8213" y1="14.9218" x2="23.1786" y2="52.0782" gradientUnits="userSpaceOnUse">
<stop stop-color="#2A6EDB"/>
<stop offset="1" stop-color="#7AAFCF"/>
</linearGradient>
</defs>
</svg>
