<svg width="50" height="50" viewBox="0 0 50 50" fill="none" xmlns="http://www.w3.org/2000/svg">
<circle cx="25" cy="25" r="25" fill="url(#paint0_linear_41_169)"/>
<path d="M38.625 23.7709C38.63 25.6957 38.1803 27.5945 37.3125 29.3125C36.2835 31.3713 34.7017 33.103 32.7442 34.3136C30.7867 35.5241 28.5308 36.1658 26.2292 36.1667C24.3044 36.1717 22.4056 35.722 20.6875 34.8542L12.375 37.625L15.1458 29.3125C14.278 27.5945 13.8283 25.6957 13.8333 23.7709C13.8342 21.4693 14.4759 19.2134 15.6865 17.2558C16.897 15.2983 18.6287 13.7165 20.6875 12.6875C22.4056 11.8197 24.3044 11.37 26.2292 11.375H26.9583C29.998 11.5427 32.869 12.8257 35.0217 14.9784C37.1743 17.131 38.4573 20.002 38.625 23.0417V23.7709Z" stroke="#E4E8EC" stroke-width="2" stroke-linecap="round" stroke-linejoin="round"/>
<defs>
<linearGradient id="paint0_linear_41_169" x1="25" y1="0" x2="25" y2="50" gradientUnits="userSpaceOnUse">
<stop stop-color="#2A6EDB"/>
<stop offset="1" stop-color="#7AAFCF"/>
</linearGradient>
</defs>
</svg>
