<svg width="50" height="50" viewBox="0 0 50 50" fill="none" xmlns="http://www.w3.org/2000/svg">
<circle cx="25" cy="25" r="25" fill="url(#paint0_linear_41_173)"/>
<path d="M35.7084 21.5834V24.5C35.7084 27.2075 34.6329 29.804 32.7185 31.7184C30.804 33.6329 28.2075 34.7084 25.5001 34.7084M25.5001 34.7084C22.7927 34.7084 20.1961 33.6329 18.2817 31.7184C16.3673 29.804 15.2917 27.2075 15.2917 24.5V21.5834M25.5001 34.7084V40.5417M19.6667 40.5417H31.3334M25.5001 8.45837C24.3398 8.45837 23.227 8.91931 22.4065 9.73978C21.586 10.5603 21.1251 11.6731 21.1251 12.8334V24.5C21.1251 25.6604 21.586 26.7732 22.4065 27.5936C23.227 28.4141 24.3398 28.875 25.5001 28.875C26.6604 28.875 27.7732 28.4141 28.5937 27.5936C29.4141 26.7732 29.8751 25.6604 29.8751 24.5V12.8334C29.8751 11.6731 29.4141 10.5603 28.5937 9.73978C27.7732 8.91931 26.6604 8.45837 25.5001 8.45837Z" stroke="#E4E8EC" stroke-width="2" stroke-linecap="round" stroke-linejoin="round"/>
<defs>
<linearGradient id="paint0_linear_41_173" x1="25" y1="0" x2="25" y2="50" gradientUnits="userSpaceOnUse">
<stop stop-color="#2A6EDB"/>
<stop offset="1" stop-color="#7AAFCF"/>
</linearGradient>
</defs>
</svg>
