<svg width="50" height="50" viewBox="0 0 50 50" fill="none" xmlns="http://www.w3.org/2000/svg">
<circle cx="25" cy="25" r="25" fill="url(#paint0_linear_41_176)"/>
<path d="M40.0833 31.675V36.05C40.085 36.4561 40.0018 36.8581 39.8391 37.2303C39.6764 37.6024 39.4377 37.9365 39.1385 38.211C38.8392 38.4856 38.4858 38.6946 38.1011 38.8248C37.7164 38.9549 37.3087 39.0032 36.9042 38.9666C32.4166 38.479 28.106 36.9456 24.3188 34.4896C20.7952 32.2505 17.8078 29.2631 15.5688 25.7396C13.1041 21.9351 11.5704 17.6035 11.0917 13.0958C11.0552 12.6925 11.1032 12.2861 11.2324 11.9023C11.3616 11.5186 11.5694 11.166 11.8424 10.8669C12.1154 10.5679 12.4476 10.3289 12.818 10.1653C13.1884 10.0017 13.5888 9.91703 13.9938 9.91665H18.3688C19.0765 9.90968 19.7626 10.1603 20.2992 10.6218C20.8359 11.0833 21.1864 11.7242 21.2854 12.425C21.4701 13.8251 21.8125 15.1998 22.3063 16.5229C22.5025 17.0449 22.5449 17.6121 22.4286 18.1575C22.3123 18.7029 22.0421 19.2035 21.65 19.6L19.7979 21.4521C21.8739 25.1031 24.8969 28.126 28.5479 30.2021L30.4 28.35C30.7965 27.9579 31.2971 27.6877 31.8425 27.5714C32.3878 27.4551 32.9551 27.4975 33.4771 27.6937C34.8002 28.1874 36.1749 28.5299 37.575 28.7146C38.2834 28.8145 38.9304 29.1713 39.3929 29.7172C39.8553 30.263 40.1011 30.9598 40.0833 31.675Z" stroke="#E4E8EC" stroke-width="2" stroke-linecap="round" stroke-linejoin="round"/>
<defs>
<linearGradient id="paint0_linear_41_176" x1="25" y1="0" x2="25" y2="50" gradientUnits="userSpaceOnUse">
<stop stop-color="#2A6EDB"/>
<stop offset="1" stop-color="#7AAFCF"/>
</linearGradient>
</defs>
</svg>
